<mxfile host="app.diagrams.net" modified="2023-08-21T03:15:46.117Z" agent="Mozilla/5.0 (Windows NT 10.0; Win64; x64) AppleWebKit/537.36 (KHTML, like Gecko) Chrome/115.0.0.0 Safari/537.36 Edg/115.0.1901.203" etag="4TB9fT4NTMchMfTeP3zl" version="21.6.6" type="device">
  <diagram name="Page-1" id="8lZvRfmWS76SQrT4DkzB">
    <mxGraphModel dx="739" dy="555" grid="1" gridSize="10" guides="1" tooltips="1" connect="1" arrows="1" fold="1" page="1" pageScale="1" pageWidth="827" pageHeight="1169" math="0" shadow="0">
      <root>
        <mxCell id="0" />
        <mxCell id="1" parent="0" />
        <mxCell id="9N5QT-GaeoVcSRfZNvdS-1" value="" style="image;html=1;image=img/lib/clip_art/networking/Modem_128x128.png" vertex="1" parent="1">
          <mxGeometry x="300" y="60" width="80" height="80" as="geometry" />
        </mxCell>
        <mxCell id="9N5QT-GaeoVcSRfZNvdS-3" value="" style="image;html=1;image=img/lib/clip_art/networking/Wireless_Router_N_128x128.png" vertex="1" parent="1">
          <mxGeometry x="310" y="240" width="80" height="80" as="geometry" />
        </mxCell>
        <mxCell id="9N5QT-GaeoVcSRfZNvdS-4" value="" style="shape=wire;edgeStyle=orthogonalEdgeStyle;orthogonalLoop=1;jettySize=auto;html=1;sourcePerimeterSpacing=0;targetPerimeterSpacing=0;endArrow=none;curved=0;rounded=0;strokeColor=#009900;dashed=1;fillColor=#ffff00;dashPattern=12 12;fixDash=1;startSize=6;endSize=6;exitX=0.5;exitY=1;exitDx=0;exitDy=0;entryX=0.375;entryY=0.5;entryDx=0;entryDy=0;entryPerimeter=0;" edge="1" parent="1" source="9N5QT-GaeoVcSRfZNvdS-1" target="9N5QT-GaeoVcSRfZNvdS-3">
          <mxGeometry width="100" relative="1" as="geometry">
            <mxPoint x="330" y="290" as="sourcePoint" />
            <mxPoint x="430" y="290" as="targetPoint" />
          </mxGeometry>
        </mxCell>
        <mxCell id="9N5QT-GaeoVcSRfZNvdS-6" value="Cable Modem" style="text;html=1;strokeColor=none;fillColor=none;align=center;verticalAlign=middle;whiteSpace=wrap;rounded=0;" vertex="1" parent="1">
          <mxGeometry x="349" y="85" width="130" height="30" as="geometry" />
        </mxCell>
        <mxCell id="9N5QT-GaeoVcSRfZNvdS-7" value="Wired Router" style="text;html=1;strokeColor=none;fillColor=none;align=center;verticalAlign=middle;whiteSpace=wrap;rounded=0;" vertex="1" parent="1">
          <mxGeometry x="354" y="260" width="120" height="30" as="geometry" />
        </mxCell>
        <mxCell id="9N5QT-GaeoVcSRfZNvdS-8" value="" style="strokeWidth=2;html=1;shape=mxgraph.flowchart.annotation_2;align=left;labelPosition=right;pointerEvents=1;rotation=-180;" vertex="1" parent="1">
          <mxGeometry x="450" y="70" width="100" height="220" as="geometry" />
        </mxCell>
        <mxCell id="9N5QT-GaeoVcSRfZNvdS-9" value="Living area" style="text;html=1;strokeColor=none;fillColor=none;align=center;verticalAlign=middle;whiteSpace=wrap;rounded=0;" vertex="1" parent="1">
          <mxGeometry x="540" y="165" width="90" height="30" as="geometry" />
        </mxCell>
        <mxCell id="9N5QT-GaeoVcSRfZNvdS-11" value="" style="image;sketch=0;aspect=fixed;html=1;points=[];align=center;fontSize=12;image=img/lib/mscae/Mobile_Engagement.svg;" vertex="1" parent="1">
          <mxGeometry x="180" y="410" width="34" height="50" as="geometry" />
        </mxCell>
        <mxCell id="9N5QT-GaeoVcSRfZNvdS-12" value="" style="image;html=1;image=img/lib/clip_art/computers/Laptop_128x128.png" vertex="1" parent="1">
          <mxGeometry x="310" y="400" width="80" height="80" as="geometry" />
        </mxCell>
        <mxCell id="9N5QT-GaeoVcSRfZNvdS-13" value="" style="image;html=1;image=img/lib/clip_art/computers/Laptop_128x128.png" vertex="1" parent="1">
          <mxGeometry x="490" y="400" width="80" height="80" as="geometry" />
        </mxCell>
        <mxCell id="9N5QT-GaeoVcSRfZNvdS-14" value="" style="endArrow=none;dashed=1;html=1;rounded=0;exitX=0.382;exitY=-0.007;exitDx=0;exitDy=0;exitPerimeter=0;entryX=0;entryY=0.75;entryDx=0;entryDy=0;" edge="1" parent="1" source="9N5QT-GaeoVcSRfZNvdS-11" target="9N5QT-GaeoVcSRfZNvdS-3">
          <mxGeometry width="50" height="50" relative="1" as="geometry">
            <mxPoint x="380" y="340" as="sourcePoint" />
            <mxPoint x="430" y="290" as="targetPoint" />
          </mxGeometry>
        </mxCell>
        <mxCell id="9N5QT-GaeoVcSRfZNvdS-15" value="" style="endArrow=none;dashed=1;html=1;rounded=0;exitX=0.25;exitY=0;exitDx=0;exitDy=0;entryX=0.25;entryY=1;entryDx=0;entryDy=0;" edge="1" parent="1" source="9N5QT-GaeoVcSRfZNvdS-12" target="9N5QT-GaeoVcSRfZNvdS-3">
          <mxGeometry width="50" height="50" relative="1" as="geometry">
            <mxPoint x="380" y="340" as="sourcePoint" />
            <mxPoint x="430" y="290" as="targetPoint" />
          </mxGeometry>
        </mxCell>
        <mxCell id="9N5QT-GaeoVcSRfZNvdS-16" value="" style="endArrow=none;dashed=1;html=1;rounded=0;exitX=0;exitY=0;exitDx=0;exitDy=0;" edge="1" parent="1" source="9N5QT-GaeoVcSRfZNvdS-13" target="9N5QT-GaeoVcSRfZNvdS-3">
          <mxGeometry width="50" height="50" relative="1" as="geometry">
            <mxPoint x="414" y="370" as="sourcePoint" />
            <mxPoint x="464" y="320" as="targetPoint" />
          </mxGeometry>
        </mxCell>
        <mxCell id="9N5QT-GaeoVcSRfZNvdS-18" value="" style="strokeWidth=2;html=1;shape=mxgraph.flowchart.annotation_2;align=left;labelPosition=right;pointerEvents=1;rotation=-90;" vertex="1" parent="1">
          <mxGeometry x="349" y="340" width="40" height="370" as="geometry" />
        </mxCell>
        <mxCell id="9N5QT-GaeoVcSRfZNvdS-19" value="Room" style="text;html=1;strokeColor=none;fillColor=none;align=center;verticalAlign=middle;whiteSpace=wrap;rounded=0;" vertex="1" parent="1">
          <mxGeometry x="339" y="550" width="60" height="30" as="geometry" />
        </mxCell>
        <mxCell id="9N5QT-GaeoVcSRfZNvdS-20" value="iPhone" style="text;html=1;strokeColor=none;fillColor=none;align=center;verticalAlign=middle;whiteSpace=wrap;rounded=0;" vertex="1" parent="1">
          <mxGeometry x="154" y="470" width="60" height="30" as="geometry" />
        </mxCell>
        <mxCell id="9N5QT-GaeoVcSRfZNvdS-21" value="Laptop 1" style="text;html=1;strokeColor=none;fillColor=none;align=center;verticalAlign=middle;whiteSpace=wrap;rounded=0;" vertex="1" parent="1">
          <mxGeometry x="329" y="480" width="60" height="30" as="geometry" />
        </mxCell>
        <mxCell id="9N5QT-GaeoVcSRfZNvdS-22" value="Laptop 2" style="text;html=1;strokeColor=none;fillColor=none;align=center;verticalAlign=middle;whiteSpace=wrap;rounded=0;" vertex="1" parent="1">
          <mxGeometry x="510" y="480" width="60" height="30" as="geometry" />
        </mxCell>
      </root>
    </mxGraphModel>
  </diagram>
</mxfile>
